v 0.0 1.0 0.0
v 0.0 -1.0 0.0
v -0.0 1.0 -1.0
v -0.0 -1.0 -1.0
v -0.19509032 1.0 -0.98078525
v -0.19509032 -1.0 -0.98078525
v -0.38268346 1.0 -0.9238795
v -0.38268346 -1.0 -0.9238795
v -0.55557024 1.0 -0.8314696
v -0.55557024 -1.0 -0.8314696
v -0.70710677 1.0 -0.70710677
v -0.70710677 -1.0 -0.70710677
v -0.8314696 1.0 -0.55557024
v -0.8314696 -1.0 -0.55557024
v -0.9238795 1.0 -0.38268343
v -0.9238795 -1.0 -0.38268343
v -0.98078525 1.0 -0.19509035
v -0.98078525 -1.0 -0.19509035
v -1.0 1.0 4.371139E-8
v -1.0 -1.0 4.371139E-8
v -0.98078525 1.0 0.19509032
v -0.98078525 -1.0 0.19509032
v -0.92387956 1.0 0.3826834
v -0.92387956 -1.0 0.3826834
v -0.83146966 1.0 0.5555702
v -0.83146966 -1.0 0.5555702
v -0.70710677 1.0 0.70710677
v -0.70710677 -1.0 0.70710677
v -0.5555702 1.0 0.83146966
v -0.5555702 -1.0 0.83146966
v -0.3826835 1.0 0.9238795
v -0.3826835 -1.0 0.9238795
v -0.19509031 1.0 0.9807853
v -0.19509031 -1.0 0.9807853
v 8.742278E-8 1.0 1.0
v 8.742278E-8 -1.0 1.0
v 0.19509025 1.0 0.9807853
v 0.19509025 -1.0 0.9807853
v 0.38268343 1.0 0.9238795
v 0.38268343 -1.0 0.9238795
v 0.5555703 1.0 0.83146954
v 0.5555703 -1.0 0.83146954
v 0.7071067 1.0 0.7071068
v 0.7071067 -1.0 0.7071068
v 0.8314695 1.0 0.5555704
v 0.8314695 -1.0 0.5555704
v 0.9238795 1.0 0.38268358
v 0.9238795 -1.0 0.38268358
v 0.98078525 1.0 0.19509038
v 0.98078525 -1.0 0.19509038
v 1.0 1.0 -1.1924881E-8
v 1.0 -1.0 -1.1924881E-8
v 0.98078525 1.0 -0.19509041
v 0.98078525 -1.0 -0.19509041
v 0.92387944 1.0 -0.3826836
v 0.92387944 -1.0 -0.3826836
v 0.8314697 1.0 -0.55557007
v 0.8314697 -1.0 -0.55557007
v 0.7071069 1.0 -0.70710665
v 0.7071069 -1.0 -0.70710665
v 0.5555703 1.0 -0.8314696
v 0.5555703 -1.0 -0.8314696
v 0.38268343 1.0 -0.92387956
v 0.38268343 -1.0 -0.92387956
v 0.19509023 1.0 -0.9807853
v 0.19509023 -1.0 -0.9807853
vt 0.75 0.75
vt 0.25 0.75
vt 0.0 0.5
vt 0.0 0.0
vt 0.03125 0.5
vt 0.03125 0.0
vt 0.0625 0.5
vt 0.0625 0.0
vt 0.09375 0.5
vt 0.09375 0.0
vt 0.125 0.5
vt 0.125 0.0
vt 0.15625 0.5
vt 0.15625 0.0
vt 0.1875 0.5
vt 0.1875 0.0
vt 0.21875 0.5
vt 0.21875 0.0
vt 0.25 0.5
vt 0.25 0.0
vt 0.28125 0.5
vt 0.28125 0.0
vt 0.3125 0.5
vt 0.3125 0.0
vt 0.34375 0.5
vt 0.34375 0.0
vt 0.375 0.5
vt 0.375 0.0
vt 0.40625 0.5
vt 0.40625 0.0
vt 0.4375 0.5
vt 0.4375 0.0
vt 0.46875 0.5
vt 0.46875 0.0
vt 0.5 0.5
vt 0.5 0.0
vt 0.53125 0.5
vt 0.53125 0.0
vt 0.5625 0.5
vt 0.5625 0.0
vt 0.59375 0.5
vt 0.59375 0.0
vt 0.625 0.5
vt 0.625 0.0
vt 0.65625 0.5
vt 0.65625 0.0
vt 0.6875 0.5
vt 0.6875 0.0
vt 0.71875 0.5
vt 0.71875 0.0
vt 0.75 0.5
vt 0.75 0.0
vt 0.78125 0.5
vt 0.78125 0.0
vt 0.8125 0.5
vt 0.8125 0.0
vt 0.84375 0.5
vt 0.84375 0.0
vt 0.875 0.5
vt 0.875 0.0
vt 0.90625 0.5
vt 0.90625 0.0
vt 0.9375 0.5
vt 0.9375 0.0
vt 0.96875 0.5
vt 0.96875 0.0
vt 1.0 0.5
vt 1.0 0.0
vt 0.75 1.0
vt 0.25 0.5
vt 0.7012274 0.99519634
vt 0.20122743 0.50480366
vt 0.6543291 0.9809699
vt 0.15432914 0.5190301
vt 0.61110747 0.9578674
vt 0.11110744 0.5421326
vt 0.5732233 0.9267767
vt 0.07322331 0.5732233
vt 0.5421326 0.88889253
vt 0.0421326 0.61110747
vt 0.5190301 0.8456708
vt 0.019030124 0.6543292
vt 0.50480366 0.7987726
vt 0.0048036873 0.7012274
vt 0.5 0.75
vt 0.0 0.75
vt 0.50480366 0.7012274
vt 0.0048036873 0.7987726
vt 0.5190301 0.6543292
vt 0.019030109 0.8456708
vt 0.5421326 0.61110747
vt 0.042132586 0.88889253
vt 0.5732233 0.5732233
vt 0.07322331 0.9267767
vt 0.61110747 0.5421326
vt 0.11110745 0.9578674
vt 0.6543291 0.5190301
vt 0.15432912 0.9809699
vt 0.7012274 0.50480366
vt 0.20122743 0.99519634
vt 0.75 0.5
vt 0.25000003 1.0
vt 0.7987726 0.50480366
vt 0.29877257 0.99519634
vt 0.8456708 0.5190301
vt 0.34567085 0.9809699
vt 0.8888926 0.5421326
vt 0.3888926 0.9578674
vt 0.92677665 0.5732233
vt 0.42677668 0.9267767
vt 0.9578674 0.6111074
vt 0.45786738 0.8888926
vt 0.9809699 0.6543291
vt 0.48096988 0.8456709
vt 0.99519634 0.7012274
vt 0.4951963 0.7987726
vt 1.0 0.75
vt 0.5 0.75
vt 0.99519634 0.7987726
vt 0.4951963 0.7012274
vt 0.98096985 0.84567094
vt 0.48096985 0.65432906
vt 0.95786744 0.88889253
vt 0.45786744 0.61110747
vt 0.9267767 0.92677665
vt 0.4267767 0.57322335
vt 0.8888926 0.9578674
vt 0.3888926 0.5421326
vt 0.8456708 0.9809699
vt 0.34567085 0.5190301
vt 0.7987726 0.99519634
vt 0.29877257 0.50480366
vn 0.0 1.0 0.0
vn 0.0 -1.0 0.0
vn -0.0 0.0 -1.0
vn -0.19509032 0.0 -0.98078525
vn -0.38268346 0.0 -0.9238795
vn -0.55557024 0.0 -0.8314696
vn -0.70710677 0.0 -0.70710677
vn -0.8314696 0.0 -0.55557024
vn -0.9238795 0.0 -0.38268343
vn -0.98078525 0.0 -0.19509035
vn -1.0 0.0 4.371139E-8
vn -0.98078525 0.0 0.19509032
vn -0.92387956 0.0 0.3826834
vn -0.83146966 0.0 0.5555702
vn -0.70710677 0.0 0.70710677
vn -0.5555702 0.0 0.83146966
vn -0.3826835 0.0 0.9238795
vn -0.19509031 0.0 0.9807853
vn 8.742278E-8 0.0 1.0
vn 0.19509025 0.0 0.9807853
vn 0.38268343 0.0 0.9238795
vn 0.5555703 0.0 0.83146954
vn 0.7071067 0.0 0.7071068
vn 0.8314695 0.0 0.5555704
vn 0.9238795 0.0 0.38268358
vn 0.98078525 0.0 0.19509038
vn 1.0 0.0 -1.1924881E-8
vn 0.98078525 0.0 -0.19509041
vn 0.92387944 0.0 -0.3826836
vn 0.8314697 0.0 -0.55557007
vn 0.7071069 0.0 -0.70710665
vn 0.5555703 0.0 -0.8314696
vn 0.38268343 0.0 -0.92387956
vn 0.19509023 0.0 -0.9807853
f 3/3/3 4/4/3 5/5/4
f 4/4/3 6/6/4 5/5/4
f 5/5/4 6/6/4 7/7/5
f 6/6/4 8/8/5 7/7/5
f 7/7/5 8/8/5 9/9/6
f 8/8/5 10/10/6 9/9/6
f 9/9/6 10/10/6 11/11/7
f 10/10/6 12/12/7 11/11/7
f 11/11/7 12/12/7 13/13/8
f 12/12/7 14/14/8 13/13/8
f 13/13/8 14/14/8 15/15/9
f 14/14/8 16/16/9 15/15/9
f 15/15/9 16/16/9 17/17/10
f 16/16/9 18/18/10 17/17/10
f 17/17/10 18/18/10 19/19/11
f 18/18/10 20/20/11 19/19/11
f 19/19/11 20/20/11 21/21/12
f 20/20/11 22/22/12 21/21/12
f 21/21/12 22/22/12 23/23/13
f 22/22/12 24/24/13 23/23/13
f 23/23/13 24/24/13 25/25/14
f 24/24/13 26/26/14 25/25/14
f 25/25/14 26/26/14 27/27/15
f 26/26/14 28/28/15 27/27/15
f 27/27/15 28/28/15 29/29/16
f 28/28/15 30/30/16 29/29/16
f 29/29/16 30/30/16 31/31/17
f 30/30/16 32/32/17 31/31/17
f 31/31/17 32/32/17 33/33/18
f 32/32/17 34/34/18 33/33/18
f 33/33/18 34/34/18 35/35/19
f 34/34/18 36/36/19 35/35/19
f 35/35/19 36/36/19 37/37/20
f 36/36/19 38/38/20 37/37/20
f 37/37/20 38/38/20 39/39/21
f 38/38/20 40/40/21 39/39/21
f 39/39/21 40/40/21 41/41/22
f 40/40/21 42/42/22 41/41/22
f 41/41/22 42/42/22 43/43/23
f 42/42/22 44/44/23 43/43/23
f 43/43/23 44/44/23 45/45/24
f 44/44/23 46/46/24 45/45/24
f 45/45/24 46/46/24 47/47/25
f 46/46/24 48/48/25 47/47/25
f 47/47/25 48/48/25 49/49/26
f 48/48/25 50/50/26 49/49/26
f 49/49/26 50/50/26 51/51/27
f 50/50/26 52/52/27 51/51/27
f 51/51/27 52/52/27 53/53/28
f 52/52/27 54/54/28 53/53/28
f 53/53/28 54/54/28 55/55/29
f 54/54/28 56/56/29 55/55/29
f 55/55/29 56/56/29 57/57/30
f 56/56/29 58/58/30 57/57/30
f 57/57/30 58/58/30 59/59/31
f 58/58/30 60/60/31 59/59/31
f 59/59/31 60/60/31 61/61/32
f 60/60/31 62/62/32 61/61/32
f 61/61/32 62/62/32 63/63/33
f 62/62/32 64/64/33 63/63/33
f 63/63/33 64/64/33 65/65/34
f 64/64/33 66/66/34 65/65/34
f 65/65/34 66/66/34 3/67/3
f 66/66/34 4/68/3 3/67/3
f 3/69/1 5/71/1 1/1/1
f 4/70/2 2/2/2 6/72/2
f 5/71/1 7/73/1 1/1/1
f 6/72/2 2/2/2 8/74/2
f 7/73/1 9/75/1 1/1/1
f 8/74/2 2/2/2 10/76/2
f 9/75/1 11/77/1 1/1/1
f 10/76/2 2/2/2 12/78/2
f 11/77/1 13/79/1 1/1/1
f 12/78/2 2/2/2 14/80/2
f 13/79/1 15/81/1 1/1/1
f 14/80/2 2/2/2 16/82/2
f 15/81/1 17/83/1 1/1/1
f 16/82/2 2/2/2 18/84/2
f 17/83/1 19/85/1 1/1/1
f 18/84/2 2/2/2 20/86/2
f 19/85/1 21/87/1 1/1/1
f 20/86/2 2/2/2 22/88/2
f 21/87/1 23/89/1 1/1/1
f 22/88/2 2/2/2 24/90/2
f 23/89/1 25/91/1 1/1/1
f 24/90/2 2/2/2 26/92/2
f 25/91/1 27/93/1 1/1/1
f 26/92/2 2/2/2 28/94/2
f 27/93/1 29/95/1 1/1/1
f 28/94/2 2/2/2 30/96/2
f 29/95/1 31/97/1 1/1/1
f 30/96/2 2/2/2 32/98/2
f 31/97/1 33/99/1 1/1/1
f 32/98/2 2/2/2 34/100/2
f 33/99/1 35/101/1 1/1/1
f 34/100/2 2/2/2 36/102/2
f 35/101/1 37/103/1 1/1/1
f 36/102/2 2/2/2 38/104/2
f 37/103/1 39/105/1 1/1/1
f 38/104/2 2/2/2 40/106/2
f 39/105/1 41/107/1 1/1/1
f 40/106/2 2/2/2 42/108/2
f 41/107/1 43/109/1 1/1/1
f 42/108/2 2/2/2 44/110/2
f 43/109/1 45/111/1 1/1/1
f 44/110/2 2/2/2 46/112/2
f 45/111/1 47/113/1 1/1/1
f 46/112/2 2/2/2 48/114/2
f 47/113/1 49/115/1 1/1/1
f 48/114/2 2/2/2 50/116/2
f 49/115/1 51/117/1 1/1/1
f 50/116/2 2/2/2 52/118/2
f 51/117/1 53/119/1 1/1/1
f 52/118/2 2/2/2 54/120/2
f 53/119/1 55/121/1 1/1/1
f 54/120/2 2/2/2 56/122/2
f 55/121/1 57/123/1 1/1/1
f 56/122/2 2/2/2 58/124/2
f 57/123/1 59/125/1 1/1/1
f 58/124/2 2/2/2 60/126/2
f 59/125/1 61/127/1 1/1/1
f 60/126/2 2/2/2 62/128/2
f 61/127/1 63/129/1 1/1/1
f 62/128/2 2/2/2 64/130/2
f 63/129/1 65/131/1 1/1/1
f 64/130/2 2/2/2 66/132/2
f 65/131/1 3/69/1 1/1/1
f 66/132/2 2/2/2 4/70/2
